<?xml version="1.0" encoding="utf-8"?>
<!-- Generator: Adobe Illustrator 19.0.0, SVG Export Plug-In . SVG Version: 6.00 Build 0)  -->
<svg version="1.1" id="レイヤー_1" xmlns="http://www.w3.org/2000/svg" xmlns:xlink="http://www.w3.org/1999/xlink" x="0px" y="0px" viewBox="0 0 960 83.5" style="enable-background:new 0 0 960 83.5;" xml:space="preserve">
<style type="text/css">
	.st0{fill:#FFFFFF;}
</style>
<g id="XMLID_698_">
	<path id="XMLID_947_" class="st0" d="M376.1,25.5c0-3.5,5.6-3.7,7.8-3.7c5.4,0,11.4,1.7,16.5,4l-2.8-23.3C390.3,1,383.1,0,373.9,0c-17.3,0-26.2,10.1-26.2,22.6c0,18.3,25.7,28.9,25.7,35.8c0,3.2-5.6,3.2-8,3.2c-6.4,0-13.1-2-19.2-4.8l3.4,24.2c7.6,0.8,16.9,2.4,22.8,2.4c22.9,0,29.5-12.6,29.5-24.2C401.7,41.4,376.1,32.8,376.1,25.5z"/>
	<path id="XMLID_944_" class="st0" d="M448,0c-23,0-45.2,12-45.2,41.8c0,29.6,22.2,41.7,45.2,41.7c23,0,45.2-12,45.2-41.7C493.2,12,471,0,448,0z M448,61.7c-8.8,0-16.8-8.1-16.8-19.9c0-11.8,8-20,16.8-20c8.8,0,16.8,8.2,16.8,20C464.8,53.6,456.8,61.7,448,61.7z"/>
	<polygon id="XMLID_943_" class="st0" points="497.3,81.9 525.7,81.9 525.7,52.3 551.5,52.3 551.5,31.2 525.3,31.2 525.3,22.6 557.4,22.6 557.4,1.6 497.3,1.6 "/>
	<path id="XMLID_942_" class="st0" d="M727.5,63.5c4.1-20.6,8.4-41.3,13-62h-23.3l-7.7,50.3h-0.2l-10-50.3H671l-7.8,50.3h-0.2l-5.6-33.4c0,0-1.8-17.9-24.5-16.9h-70.3v21.1h22.3v59.3h28.4V22.6h22.3c4.3,19.7,8.4,39.5,12.2,59.3h29.4l7.2-45.3h0.2l8.8,45.3h11.3C722.7,83.6,727.5,63.5,727.5,63.5z"/>
	<polygon id="XMLID_941_" class="st0" points="960,22.6 960,1.6 896,1.6 896,81.9 960,81.9 960,60.8 924.4,60.8 924.4,52.3 953.6,52.3 953.6,31.2 924.4,31.2 924.4,22.6 "/>
	<polygon id="XMLID_940_" class="st0" points="0,81.4 28.4,81.4 28.4,51.7 54.2,51.7 54.2,30.7 28,30.7 28,22.1 60,22.1 60,1 0,1 "/>
	<path id="XMLID_937_" class="st0" d="M185.3,61.1c-8.8,0-16.8-8.1-16.8-19.9c0-11.8,8-20,16.8-20c8.8,0,16.8,8.2,16.8,20C202.1,53.1,194,61.1,185.3,61.1z M185.3-0.5c-23,0-45.2,12-45.2,41.8c0,29.6,22.2,41.7,45.2,41.7c23,0,45.2-12,45.2-41.7C230.4,11.5,208.2-0.5,185.3-0.5z"/>
	<path id="XMLID_936_" class="st0" d="M137.2,26c0-15.4-9.1-24.9-26.7-24.9H65.2v80.3h27V21.5h9.4c4.8,0,8.2,1.3,8.6,7c0.3,6.1-6,7.8-11,7.8c-1.6,0-3.3-0.2-4.7-0.5l12.6,45.5h29.6c-4.8-11.4-9-23-12.7-34.5C132.8,42.3,137.2,34.6,137.2,26z"/>
	<polygon id="XMLID_935_" class="st0" points="280.1,45.2 279.9,45.2 271.9,1 234.9,1 234.9,81.4 256.9,81.4 256.9,28.4 257.1,28.4 267.6,81.4 291.1,81.4 301.9,28.4 302.1,28.4 302.1,81.4 325.3,81.4 325.3,1 288.4,1 "/>
	<path id="XMLID_699_" class="st0" d="M891.6,26.5c0-15.4-9.1-24.9-26.7-24.9h-45.3v72.5c-9.8-24.2-19-48.4-27.9-72.5H758c-10.8,26.7-22.3,54.2-34.3,80.3h30.9l6.5-18.5h25.7l6.3,18.5h53.5V22h9.4c4.8,0,8.2,1.3,8.6,7c0.3,6.1-6,7.8-10.9,7.8c-1.6,0-3.3-0.2-4.7-0.5l12.6,45.5h29.6c-4.8-11.4-9-23-12.7-34.4C887.3,42.9,891.6,35.2,891.6,26.5z M767.6,42.9l6.8-19.9h0.2l6.4,19.9H767.6z"/></g>
</svg>
