<?xml version="1.0" encoding="utf-8"?>
<!-- Generator: Adobe Illustrator 19.0.0, SVG Export Plug-In . SVG Version: 6.00 Build 0)  -->
<svg version="1.1" xmlns="http://www.w3.org/2000/svg" xmlns:xlink="http://www.w3.org/1999/xlink" x="0px" y="0px" viewBox="-1168.6 178.6 290.8 57.6" style="enable-background:new -1168.6 178.6 290.8 57.6;fill:#fff;" xml:space="preserve">
<g>
	<g>
		<path d="M-1153.2,213.9c0,9.4,0,14.5,1.5,15.8c1.2,1.1,3,1.6,8.5,1.6c3.7,0,6.4-0.1,8.2-2.1c0.8-1,1.7-3,1.8-4.4c0.1-0.7,0.2-1.1,0.8-1.1c0.5,0,0.6,0.4,0.6,1.3c0,0.8-0.5,6.3-1.1,8.5c-0.4,1.6-0.8,2-4.4,2c-5,0-8.7-0.1-11.8-0.2c-3.2-0.1-5.7-0.2-8.5-0.2c-0.8,0-2.3,0-4,0.1c-1.6,0-3.4,0.1-4.8,0.1c-0.9,0-1.4-0.2-1.4-0.7c0-0.4,0.3-0.6,1.1-0.6c1,0,1.9-0.1,2.5-0.3c1.4-0.3,1.8-1.9,2-4c0.4-3.1,0.4-8.9,0.4-15.7v-12.9c0-11.2,0-13.2-0.1-15.6c-0.1-2.5-0.7-3.7-3-4.2c-0.6-0.1-1.4-0.2-2.3-0.2c-0.8,0-1.2-0.1-1.2-0.7c0-0.5,0.5-0.7,1.5-0.7c3.3,0,7.7,0.2,9.6,0.2c1.7,0,6.8-0.2,9.5-0.2c1,0,1.5,0.1,1.5,0.7c0,0.5-0.4,0.7-1.3,0.7c-0.8,0-1.9,0.1-2.7,0.2c-1.9,0.4-2.5,1.6-2.6,4.2c-0.1,2.4-0.1,4.4-0.1,15.6V213.9z"/>
		<path d="M-1117.8,200.9c0-11.2,0-13.2-0.1-15.6c-0.1-2.5-0.8-3.7-2.4-4.1c-0.8-0.2-1.7-0.3-2.5-0.3c-0.7,0-1.1-0.1-1.1-0.7c0-0.4,0.6-0.6,1.7-0.6c2.7,0,7.1,0.2,9.1,0.2c1.8,0,5.9-0.2,8.5-0.2c0.9,0,1.5,0.1,1.5,0.6c0,0.6-0.4,0.7-1.1,0.7c-0.7,0-1.3,0.1-2.1,0.2c-1.9,0.4-2.5,1.6-2.6,4.2c-0.1,2.4-0.1,4.4-0.1,15.6v12.9c0,7.1,0,12.9,0.3,16.1c0.2,2,0.7,3.3,2.8,3.6c1,0.1,2.5,0.3,3.6,0.3c0.8,0,1.1,0.2,1.1,0.6c0,0.5-0.6,0.7-1.3,0.7c-4.6,0-9-0.2-10.9-0.2c-1.6,0-6,0.2-8.8,0.2c-0.9,0-1.4-0.2-1.4-0.7c0-0.4,0.3-0.6,1.1-0.6c1,0,1.9-0.1,2.5-0.3c1.4-0.3,1.8-1.5,2-3.7c0.4-3.1,0.4-8.9,0.4-16V200.9z"/>
		<path d="M-1080.5,225.2c0.1,5.7,1.1,7.6,2.5,8.2c1.2,0.4,2.5,0.5,3.6,0.5c0.8,0,1.2,0.1,1.2,0.6c0,0.6-0.6,0.7-1.6,0.7c-4.6,0-7.4-0.2-8.7-0.2c-0.6,0-3.9,0.2-7.6,0.2c-0.9,0-1.5-0.1-1.5-0.7c0-0.4,0.4-0.6,1.1-0.6c0.9,0,2.2-0.1,3.2-0.4c1.8-0.6,2.1-2.7,2.2-9.1l0.6-43.3c0-1.5,0.2-2.5,0.9-2.5c0.8,0,1.4,1,2.6,2.3c0.8,1,11.5,12.7,21.7,23.4c4.8,5,14.2,15.6,15.4,16.8h0.3l-0.7-33c-0.1-4.5-0.7-5.9-2.4-6.6c-1.1-0.4-2.7-0.4-3.7-0.4c-0.8,0-1.1-0.2-1.1-0.7c0-0.6,0.8-0.7,1.8-0.7c3.6,0,7,0.2,8.5,0.2c0.8,0,3.4-0.2,6.9-0.2c0.9,0,1.6,0.1,1.6,0.7c0,0.4-0.4,0.7-1.3,0.7c-0.7,0-1.3,0-2.1,0.2c-2,0.6-2.5,2.1-2.6,6.2l-0.8,46.4c0,1.6-0.3,2.3-0.9,2.3c-0.8,0-1.6-0.8-2.4-1.6c-4.4-4.4-13.4-14-20.7-21.6c-7.6-7.9-15.4-16.9-16.7-18.3h-0.2L-1080.5,225.2z"/>
		<path d="M-1016.4,200.9c0-11.2,0-13.2-0.1-15.6c-0.1-2.5-0.7-3.7-3-4.2c-0.6-0.1-1.8-0.2-2.7-0.2c-0.8,0-1.2-0.1-1.2-0.7c0-0.5,0.5-0.7,1.5-0.7c1.9,0,3.9,0.1,5.7,0.1c1.8,0.1,3.4,0.1,4.4,0.1c2.2,0,16.2,0,17.5-0.1c1.3-0.1,2.5-0.3,3-0.4c0.3-0.1,0.8-0.3,1.1-0.3c0.3,0,0.4,0.3,0.4,0.7c0,0.5-0.3,1.4-0.6,4.8c-0.1,0.7-0.2,4-0.4,4.9c-0.1,0.4-0.2,0.8-0.7,0.8s-0.6-0.4-0.6-1c0-0.5-0.1-1.8-0.4-2.6c-0.5-1.3-1.2-2.2-4.7-2.6c-1.2-0.1-8.5-0.3-9.9-0.3c-0.3,0-0.5,0.2-0.5,0.7v18.6c0,0.5,0.1,0.8,0.5,0.8c1.5,0,9.6,0,11.2-0.1c1.7-0.1,2.7-0.4,3.4-1.1c0.5-0.6,0.8-1,1.1-1c0.3,0,0.5,0.1,0.5,0.6s-0.3,1.6-0.6,5.4c-0.1,1.5-0.3,4.4-0.3,4.9c0,0.6,0,1.4-0.6,1.4c-0.5,0-0.6-0.3-0.6-0.7c-0.1-0.7-0.1-1.7-0.3-2.6c-0.4-1.5-1.3-2.6-3.9-2.9c-1.3-0.1-8.3-0.2-9.9-0.2c-0.3,0-0.4,0.3-0.4,0.7v5.8c0,2.5-0.1,9.3,0,11.4c0.1,5.1,1.3,6.2,8.4,6.2c1.8,0,4.8,0,6.6-0.9c1.8-0.9,2.7-2.4,3.1-5.4c0.1-0.8,0.3-1.1,0.8-1.1c0.6,0,0.6,0.6,0.6,1.3c0,1.7-0.6,6.7-0.9,8.2c-0.5,1.9-1.1,1.9-3.8,1.9c-5.3,0-9.1-0.1-12.1-0.2c-3-0.1-5.2-0.2-7.3-0.2c-0.8,0-2.3,0-4,0.1c-1.6,0-3.4,0.1-4.8,0.1c-0.9,0-1.4-0.2-1.4-0.7c0-0.4,0.3-0.6,1.1-0.6c1,0,1.9-0.1,2.5-0.3c1.4-0.3,1.8-1.9,2-4c0.4-3.1,0.4-8.9,0.4-15.7V200.9z"/>
		<path d="M-973.4,200.9c0-11.2,0-13.2-0.1-15.6c-0.1-2.5-0.7-3.7-3-4.2c-0.6-0.1-1.8-0.2-2.7-0.2c-0.8,0-1.2-0.1-1.2-0.7c0-0.5,0.5-0.7,1.5-0.7c3.7,0,8.1,0.2,10.2,0.2c1.7,0,6.1-0.2,8.6-0.2c1,0,1.5,0.1,1.5,0.7c0,0.5-0.4,0.7-1.1,0.7c-0.8,0-1.2,0.1-2,0.2c-1.9,0.4-2.5,1.6-2.6,4.2c-0.1,2.4-0.1,4.4-0.1,15.6v10.3c0,10.7,2,15.1,5.5,18.1c3.2,2.7,6.4,3,8.8,3c3.1,0,6.9-1,9.7-4c3.8-4,4.1-10.7,4.1-18.2v-9.2c0-11.2,0-13.2-0.1-15.6c-0.1-2.5-0.7-3.7-3-4.2c-0.6-0.1-1.8-0.2-2.5-0.2c-0.8,0-1.2-0.1-1.2-0.7c0-0.5,0.5-0.7,1.5-0.7c3.6,0,8,0.2,8.1,0.2c0.8,0,5.3-0.2,8-0.2c1,0,1.5,0.1,1.5,0.7c0,0.5-0.4,0.7-1.3,0.7c-0.8,0-1.2,0.1-2,0.2c-1.9,0.4-2.5,1.6-2.6,4.2c-0.1,2.4-0.1,4.4-0.1,15.6v7.9c0,8.2-0.8,16.8-6.7,22.1c-5,4.5-10,5.3-14.6,5.3c-3.7,0-10.4-0.2-15.5-5.1c-3.6-3.4-6.2-8.8-6.2-19.5V200.9z"/>
		<path d="M-909,200.9c0-11.2,0-13.2-0.1-15.6c-0.1-2.5-0.7-3.7-3-4.2c-0.6-0.1-1.8-0.2-2.7-0.2c-0.8,0-1.2-0.1-1.2-0.7c0-0.5,0.5-0.7,1.5-0.7c3.7,0,8.1,0.2,10.1,0.2c2.9,0,6.9-0.2,10.2-0.2c8.8,0,11.9,3.1,13,4.2c1.5,1.5,3.5,4.9,3.5,8.7c0,10.4-7.3,17.8-17.2,17.8c-0.3,0-1.1,0-1.5-0.1c-0.4-0.1-0.8-0.1-0.8-0.7c0-0.6,0.5-0.8,2-0.8c3.9,0,9.4-4.6,9.4-12.1c0-2.4-0.2-7.4-4.1-11c-2.5-2.4-5.4-2.9-7-2.9c-1.1,0-2.1,0.1-2.7,0.3c-0.4,0.1-0.6,0.6-0.6,1.4v29.4c0,6.8,0,12.6,0.4,15.7c0.2,2.1,0.6,3.7,2.7,4c1,0.1,2.5,0.3,3.6,0.3c0.8,0,1.1,0.2,1.1,0.6c0,0.5-0.6,0.7-1.3,0.7c-4.6,0-9-0.2-10.9-0.2c-1.6,0-6,0.2-8.8,0.2c-0.9,0-1.4-0.2-1.4-0.7c0-0.4,0.3-0.6,1.1-0.6c1,0,1.9-0.1,2.5-0.3c1.4-0.3,1.8-1.9,2-4c0.4-3.1,0.4-8.9,0.4-15.7V200.9z"/>
	</g>
</g>
</svg>
