<?xml version="1.0" encoding="utf-8"?>
<!-- Generator: Adobe Illustrator 19.0.0, SVG Export Plug-In . SVG Version: 6.00 Build 0)  -->
<svg version="1.1" id="レイヤー_1" xmlns="http://www.w3.org/2000/svg" xmlns:xlink="http://www.w3.org/1999/xlink" x="0px"
	 y="0px" viewBox="0 0 61.7 61.7" style="enable-background:new 0 0 61.7 61.7;" xml:space="preserve">
<style type="text/css">
	.st0{fill:#FFFFFF;}
</style>
<g id="XMLID_101_">
	<path id="XMLID_680_" class="st0" d="M40.9,26.1l0.5-0.5l-1.2,0.1C40.3,26,40.6,26.1,40.9,26.1z"/>
	<path id="XMLID_6674_" class="st0" d="M0.4,55.8L0,56.3l0.3,0.3c0.2-0.1,0.6-0.2,0.8-0.3C0.9,56.1,0.7,55.9,0.4,55.8z"/>
	<path id="XMLID_6675_" class="st0" d="M55,58.1c0,0.2,0.6,0.5,1.1,0.5l0.1-0.5c1.1,0.4-0.1,1,0.3,1.3c0.3,0,0.9,0.1,0.7-0.3
		c0.3,0.1,0.8,0.2,1.1,0.5l1.6-1.6C58.3,57.8,56.6,57.9,55,58.1z"/>
	<path id="XMLID_6678_" class="st0" d="M16.1,48.9c0.1,0.5,0.6,0.7,1.2,0.8l1.8-1.8c-0.5-0.4-1.2-0.8-2.1-0.8
		C16.7,47.3,15.2,48.1,16.1,48.9z M17.7,47.7l0.4,0.1l-0.8,0.6L17.7,47.7z"/>
	<path id="XMLID_6679_" class="st0" d="M40.5,15.9C40.5,15.8,40.5,15.8,40.5,15.9L40.3,16l0.1,0C40.4,16,40.4,15.9,40.5,15.9z"/>
	<path id="XMLID_6682_" class="st0" d="M51.9,53.7c-0.5,0-1.6,0.2-2.3,0.1c-0.4,2.4,3.6,0.2,4.9,2l-0.1-0.3c1.6,0.5,4.6-1.5,4.3,0.9
		c0.8-0.2,1.7,0.4,1.9-0.4c0.4,0.1,0.8,0.2,1.2,0.3l0,0l-8.8-8.8c-0.7-0.1-1.4-0.2-1.3-0.6c-0.7-0.3-0.5,0.2-0.8,0.6
		c-0.3-0.4-0.5-0.4-1-0.4l0.8-0.6c-0.8-0.9-0.5,0.4-1.7-0.3c0.6-0.8,1-0.8,1.6-1L43.4,38c-0.1,0.1,0.1,0.4,0.3,0.6
		c0.1,0.1,0.3,0.3,0.4,0.5c0.1,0.1,0.1,0.1,0.1,0.1c0,0-0.1-0.1-0.1-0.1c-0.1-0.1-0.3-0.3-0.4-0.5c-0.9-0.8-1.6-0.5-2.8-0.6
		c-0.7-0.4-0.2-0.8,0.1-1.2c-0.8-0.5-0.8,0.4-1.1-0.4c1.2,0.4,0.9-0.7,0.9-1.1l-4.5-4.5l2-2l-0.5,0.1l0.4-0.5l0.4,0.1l1.9-1.9
		c-0.8-0.1-2.1-0.6-3.1-0.7c-0.2,0-0.5,0-0.8,0c0.2-0.1,0.5,0,0.8,0c0.6-0.1,0.8-0.3,1.2-0.7c0.5,0.2,0.8,0.7,1.4,0.7
		c0.1-0.3-0.3-0.7-0.6-0.7l1.1,0.4l0.2-0.6c0.7-0.2,0.9-0.1,1,0.3l9.2-9.2c-0.7,0-1.4,0-2.1-0.1l0.5-0.8L48,15.1
		c1.5,0.3,0.5-0.6,1.6,0.2c0.5-0.2-0.2-0.5,0-0.7l0.5,0.4c1.2-0.3,0.1-0.8-0.3-1.3c0.9-0.3,2.1-0.6,2.8-0.3c0,0.7,0.2,0.5-0.1,1.2
		l0.1,0l1.4-1.4c0,0,0,0-0.1,0c0,0,0,0,0.1,0l6.5-6.5l-0.5,0.2L59.6,6l1.2,0.2l0.8-0.8l-1.5-1.5c-0.5,0.2-1,0.4-1.5,0.5
		c0-0.6-0.6-0.4-1.2-0.4c-0.4,0.8,0.4,1,0.3,2C58.4,6,58.6,5.9,59,6.3l-1.6,0.2C58,4.9,54,5.9,52.9,5c1.2-0.3,1.8,0.8,2.4-0.6l1,0.6
		c0.7-0.5-0.3-0.9-0.2-1.6c-1.4-0.5-0.8,0.6-1.7,0.7l0.2-0.6l-1.7-0.2l-1.6,1.6c0.3,0,0.6,0,0.9,0.2c-1.2,0.1-0.1,1.2,1.2,1.2
		c0.5-0.9,0.9,0.4,1.6-0.4l0.6,1.3c-0.7,0.1-3-0.9-4.4-0.4c0,0.4,0.9,0.1,1.3,0.2c-0.5,0.2-1.2-0.1-0.8,0.6
		c-0.9-0.3-1.1-0.7-2.1-0.5l0.1-0.5l-9.2,9.2c0,0,0,0.1,0,0.1c0,0,0,0,0,0c0,0,0,0.1,0.1,0.1l-0.2,0c0,0-0.1,0-0.1,0l-1.4,1.4
		c0.4,0,0.8,0,1.2,0.1c-0.5,0.9,1.1-0.2,1.5,0.4l-0.2,0.9C40.9,18,40,18.1,39,18.4l0.3,0.2c-1,0.2-1.4,0.2-1.8,0.2L33.3,23
		c0,0,0,0,0.1,0c0,0-0.1,0-0.1,0l-1.4,1.4c0.4,0.2,0.8,0.4,1.2,0.6l0.2-0.1c0,0.1,0,0.1,0,0.2c0.2,0.1,0.4,0.2,0.6,0.3
		c0.1,0,0.1,0,0.2,0.1c-0.1,0-0.1,0-0.2-0.1c-0.2-0.1-0.6-0.1-0.6-0.3c-0.1,0-0.1-0.1-0.2-0.1l-1.8,1.1c-0.7-0.6-1.3-0.2-2.2-0.7
		c0.8,0.1,1-0.3,1.1-0.6l-1.4-1.4c0,0,0,0,0,0c0,0,0,0,0,0l-2.1-2.1l-0.3-0.2l0.1,0.1l-3.5-3.5l0,0.1l-0.4-0.5l-0.9,0.3
		c0.2-0.3,0.5-0.4,0.8-0.5L5.4,0L0,5.4l2.7,2.7c0.9,0.4,2.6-0.1,3.5,0c0.5-0.8-0.8-0.5-1.1-0.7C6.4,7.7,6.8,6.9,8,7.3c0,0,0,0,0,0
		L7.8,7C8.1,7,8.1,7.2,8,7.3l0.3,0.4C8.9,7.6,9.7,8,10,7.8l0.1-0.3c0,0.2-0.1,0.3-0.1,0.3L9.9,8c0.2,0.5,0.8,0.2,1.2,0.3l0.1-0.7
		c1,0.8-2,1.1-0.1,1.6l0.6-0.7c1.2-0.7,1,0.6,2.2,0.5c-0.6,0.8-2-0.1-2.2,0.9c0.1,0.3,0.7,0.1,0.8,0.4c-0.3,0.2-0.8,0.4-0.6,0.7
		l0.8-0.2c-1,0.6-2.5,0.5-3.4,1c2.1,0.2,0.2,1.8,1.9,2.2c0.1-0.3,2.8-0.7,2.5,0.4l-2.8-0.2c0.6,0.9,2.2,1.8,3.4,2.6
		c0.9,0.1,1.5-0.1,2.5-0.3l0.2,0.6c1.6,0.3,0-0.7,1.2-0.9c0.3,1.1,3.1,1,3.3,2.5c-0.1-0.5,0.4-0.3,1-0.2c0-0.1,0.2-0.1,0.5,0.1
		c-0.1,0-0.3,0-0.5-0.1c-0.1,0.3,0.3,1.1,0.1,0.7c-0.8,0-0.8-0.9-1.9-0.2c-0.1,0.3,0,0.6,0.6,0.7l-0.9-0.1l0.7,1.4
		c-0.5,0-1-0.8-1.3-0.2l0.3,0.2c-0.9,0.1-1.4,0.5-2.1,0.2l0.1-1c-2.1,0.2-0.2-1.4-2-1.4l0.1,0.6c0,0.1,0.1,0.2,0.1,0.4L16,19.7
		c-0.3-0.8-1.9-0.7-2.5-0.8l3.7,3.7c0.2-0.1,0.5-0.3,0.7-0.2c0.2,0.2-0.1,0.4-0.3,0.6l3.7,3.7c0.6-0.1,1.2-0.1,2,0
		c-1.1-0.2-1.5-1.2-3-1.1l1.1-0.3c0-0.1-0.1-0.1-0.1-0.2l0.3,0.2l-0.2,0.1c0.7,1.1,3-0.7,4.2-0.3c-0.9,0.7,0,0.9,0.3,1.3l1.7-0.1
		c-0.5,1.1,1.1,0.9,1.9,1.4c-0.6,0.5-0.9,0.5-1.2,1.2l-0.8-0.5c-0.9,2-1.8-1-2.8,0.9c0.4-0.7-0.7-0.4-1.6-0.5l2.2,2.2L20,36.2
		c0,0,0.1,0,0.1,0l-0.1,1c1.2-0.5,2.2-1.8,4-1.4c0.4,0.6,2.4,0.1,2.3,1c-1.9-0.9-4,1.2-5.7,0.2c0.3,0.6,1,0.4,1.1,1.1L20.5,39
		c-1.2-0.6-1.9-0.7-2.7-0.7l-5.3,5.3c0.9,0,1.8,0.1,2.3,1.4c0.4,0,1.3,0.3,1.6,0c0-0.1,0.1-0.1,0.1-0.1c0-0.1,0-0.1,0-0.2
		c0,0,0,0.1,0,0.2c0,0.1-0.1,0.1-0.1,0.1c-0.1,0.2-0.2,0.3-0.2,0.5c0.8-0.5,2.2,0.1,3.3,0.3c0.3,0,0.5,0,0.8,0.1
		c-0.3,0-0.5,0-0.8-0.1c-0.5,0.1-0.9,0.4-1,0.5c0.9-0.2,0.9,0.5,1.6,0.5l10.6-10.6l6.6,6.6c0.5-0.3-0.2-0.4-0.1-0.7l3.2,0.7
		c-0.4,0.3-0.9,0.7-1.6,0.8l1,1.6c-0.2-0.1-0.4-0.3-0.6-0.3l8.5,8.5C49.2,53.6,50.5,53.9,51.9,53.7z M57,7.2c1.2,0.4-0.5,0-0.2,0.7
		C56.2,7.8,56.6,7.3,57,7.2z M44.5,14.1c0.2,0-0.2,0.5,0.2,0.8L45,15c-0.2,0-0.3-0.1-0.4-0.1l-0.8-0.3L44.5,14.1z M11.9,12l0.4-0.3
		l0.8,0.4L11.9,12z M13.2,11.1l0.1-1.2l0.8,0.4L13.2,11.1z M14.8,14.5l0.4-0.5l0.6,0.5L14.8,14.5z M19.1,43.3l-1.1-0.2l1.3,0
		L19.1,43.3z M43.2,48.1c0.7-0.5,2.1,0,2.1-1c-0.4-0.3-0.8-0.5-0.2-0.8c0.7,1.4,0,0,0.6,1.5C44.6,47.4,44.1,49.3,43.2,48.1z
		 M46.5,44.5c-1.1-0.9-2.7,0.2-3.7-0.1c0,0.4,0.5,0.4,0.8,0.5l-0.6,0.7c-3-0.7,1.2-0.9-1.4-1.8c-0.1,0.1-0.4,0.3-0.4,0.5
		c-0.8-0.5,0.1-0.3-0.4-0.8l0.9,0.1c0-0.4-0.4-0.6,0.1-0.8c0.8,1.2,3.5-0.2,4.4,0.8L46,43.3C47.5,43.4,45.8,43.9,46.5,44.5z
		 M47.2,45.7c-0.1-0.1-0.2-0.1-0.1-0.2C47.2,45.5,47.2,45.6,47.2,45.7c0.4,0.2,1.1,0.1,0.5,0.4C47,46.2,47.2,45.9,47.2,45.7z
		 M48.1,46.2l0.3,0.7l-0.7-0.3C47.9,46.6,48.3,46.5,48.1,46.2z M50,49.2l0-0.9c-0.4-0.1-1.6,0.2-1.6-0.2c0.7,0.5,1.2-0.1,1-0.6
		l1.2,0.1l-0.4,0.7c1.1,0,2.3-0.3,3.2-0.1C53.6,50,51.4,48.4,50,49.2z"/>
	<path id="XMLID_6693_" class="st0" d="M38.3,43.7l0.7,0.7c0.1-0.1,0.1-0.3,0-0.5C38.8,43.9,38.5,43.8,38.3,43.7z"/>
	<path id="XMLID_6694_" class="st0" d="M56.1,0.4c-0.2,0.1-0.3,0.1-0.4,0.1l-0.2,0.2C55.9,1.2,55.1,2,55,2.4l1.2,0.1l0-0.9l0.7,0.6
		c0.4-0.3,0.1-1-0.7-1l1-0.4L56.3,0l-0.5,0.5L56.1,0.4z"/>
	<path id="XMLID_6695_" class="st0" d="M19.2,47.9L20,47c-0.5,0.2-0.9,0.4-1.2,0.6C19,47.7,19.1,47.8,19.2,47.9z"/>
	<path id="XMLID_6696_" class="st0" d="M16.7,50.4l0.4-0.4c-0.3-0.3-0.7-0.6-1.4-0.4c0,0.1,0.1,0.2,0.2,0.2
		C16.2,50,16.5,50.2,16.7,50.4z"/>
	<path id="XMLID_6699_" class="st0" d="M8.2,56.8c-0.1-0.3,0.5-0.4,0-0.7l2.2,0.7l4.4-4.4c-0.3-0.3-0.6-0.7-0.5-0.9
		c0.3,0.1,0.6,0.4,0.8,0.6l0.4-0.4c-0.1-0.3,0-0.7,0-0.7l0.5,0.2l0.5-0.5c-0.2-0.1-0.5-0.3-0.8-0.6c-0.6-0.3-1.5-0.5-2.3-0.4
		c-0.1,0.1-0.3,0.1-0.4,0.1c0.1,0,0.3,0,0.4-0.1c0.7-0.3,1.1-1.9,2.3-2.3c-1.2-1-1.8-1-3.6-1.1l0.2-1.1c-0.4,0.2-0.8,0.2-1.2,0.1
		L0.5,55.7c0.6,0.2,1.3,0.5,1.4,0.9l-1.5-0.1l0,0.1l5,5l4.9-4.9L8.2,56.8z M3.9,57.8c-0.6-0.5-1.4-1.5-1.8-1.9l4.3,0.9
		C6.6,57.6,4.7,57.4,3.9,57.8z"/>
</g>
</svg>
