<?xml version="1.0" encoding="utf-8"?>
<!-- Generator: Adobe Illustrator 19.0.0, SVG Export Plug-In . SVG Version: 6.00 Build 0)  -->
<svg version="1.1" xmlns="http://www.w3.org/2000/svg" xmlns:xlink="http://www.w3.org/1999/xlink" x="0px" y="0px" viewBox="-1105.3 207.4 388.2 57.6" style="enable-background:new -1105.3 207.4 388.2 57.6;fill:#fff;" xml:space="preserve">
<g>
	<g>
		<path d="M-1096.6,257c-6.9-6.3-8.7-14.6-8.7-21.7c0-5,1.5-13.7,8.2-20.1c5-4.9,11.7-7.8,22.1-7.8c4.3,0,6.9,0.3,10.2,0.7c2.7,0.4,4.9,1,7,1.2c0.8,0.1,1,0.4,1,0.9c0,0.6-0.2,1.5-0.3,4c-0.1,2.4-0.1,6.5-0.2,7.9c-0.1,1.1-0.2,1.7-0.8,1.7c-0.6,0-0.7-0.6-0.7-1.6c-0.1-2.3-1-4.9-2.7-6.8c-2.3-2.6-7.8-4.6-14.2-4.6c-6.1,0-10.1,1.6-13.2,4.6c-5.1,4.9-6.4,11.9-6.4,19c0,17.5,12.7,26.2,22.1,26.2c6.2,0,10-0.7,12.8-4.1c1.2-1.4,2.1-3.5,2.4-4.9c0.2-1.2,0.4-1.5,0.9-1.5c0.5,0,0.6,0.5,0.6,1.1c0,0.9-0.8,7.3-1.5,9.8c-0.3,1.2-0.6,1.6-1.8,2.1c-2.8,1.2-8.1,1.7-12.6,1.7C-1082.2,265-1090.3,262.8-1096.6,257z"/>
		<path d="M-1047.6,236.2c0-12.6,7.9-28.8,28.9-28.8c17.4,0,28.3,10.7,28.3,27.5c0,16.8-11.2,30.1-29,30.1C-1039.4,265-1047.6,249.2-1047.6,236.2z M-1000.2,237.6c0-16.5-9-26.7-20.5-26.7c-8.1,0-17.2,4.7-17.2,23c0,15.3,8.1,27.4,21.5,27.4C-1011.5,261.3-1000.2,258.8-1000.2,237.6z"/>
		<path d="M-969.4,254c0.1,5.7,1.1,7.6,2.5,8.2c1.2,0.4,2.5,0.5,3.6,0.5c0.8,0,1.2,0.1,1.2,0.6c0,0.6-0.6,0.7-1.6,0.7c-4.6,0-7.4-0.2-8.7-0.2c-0.6,0-3.9,0.2-7.6,0.2c-0.9,0-1.5-0.1-1.5-0.7c0-0.4,0.4-0.6,1.1-0.6c0.9,0,2.2-0.1,3.2-0.4c1.8-0.6,2.1-2.7,2.2-9.1l0.6-43.3c0-1.5,0.2-2.5,0.9-2.5c0.8,0,1.4,1,2.6,2.3c0.8,1,11.5,12.7,21.7,23.4c4.8,5,14.2,15.6,15.4,16.8h0.3l-0.7-33c-0.1-4.5-0.7-5.9-2.4-6.6c-1.1-0.4-2.7-0.4-3.7-0.4c-0.8,0-1.1-0.2-1.1-0.7c0-0.6,0.8-0.7,1.8-0.7c3.6,0,7,0.2,8.5,0.2c0.8,0,3.4-0.2,6.9-0.2c0.9,0,1.6,0.1,1.6,0.7c0,0.4-0.4,0.7-1.3,0.7c-0.7,0-1.3,0-2.1,0.2c-2,0.6-2.5,2.1-2.6,6.2l-0.8,46.4c0,1.6-0.3,2.3-0.9,2.3c-0.8,0-1.6-0.8-2.4-1.6c-4.4-4.4-13.4-14-20.7-21.6c-7.6-7.9-15.4-16.9-16.7-18.3h-0.2L-969.4,254z"/>
		<path d="M-904.2,257c-6.9-6.3-8.7-14.6-8.7-21.7c0-5,1.5-13.7,8.2-20.1c5-4.9,11.7-7.8,22.1-7.8c4.3,0,6.9,0.3,10.2,0.7c2.7,0.4,4.9,1,7,1.2c0.8,0.1,1,0.4,1,0.9c0,0.6-0.2,1.5-0.3,4c-0.1,2.4-0.1,6.5-0.2,7.9c-0.1,1.1-0.2,1.7-0.8,1.7c-0.6,0-0.7-0.6-0.7-1.6c-0.1-2.3-1-4.9-2.7-6.8c-2.3-2.6-7.8-4.6-14.2-4.6c-6.1,0-10.1,1.6-13.2,4.6c-5.1,4.9-6.4,11.9-6.4,19c0,17.5,12.7,26.2,22.1,26.2c6.2,0,10-0.7,12.8-4.1c1.2-1.4,2.1-3.5,2.4-4.9c0.2-1.2,0.3-1.5,0.9-1.5c0.5,0,0.6,0.5,0.6,1.1c0,0.9-0.8,7.3-1.5,9.8c-0.4,1.2-0.6,1.6-1.8,2.1c-2.8,1.2-8.1,1.7-12.6,1.7C-889.8,265-897.8,262.8-904.2,257z"/>
		<path d="M-847.5,229.7c0-11.2,0-13.2-0.1-15.6c-0.1-2.5-0.7-3.7-3-4.2c-0.6-0.1-1.8-0.2-2.7-0.2c-0.8,0-1.2-0.1-1.2-0.7c0-0.5,0.5-0.7,1.5-0.7c1.9,0,3.9,0.1,5.7,0.1c1.8,0.1,3.4,0.1,4.4,0.1c2.2,0,16.2,0,17.5-0.1c1.3-0.1,2.5-0.3,3-0.4c0.3-0.1,0.8-0.3,1.1-0.3c0.3,0,0.4,0.3,0.4,0.7c0,0.5-0.3,1.4-0.6,4.8c-0.1,0.7-0.2,4-0.3,4.9c-0.1,0.4-0.2,0.8-0.7,0.8s-0.6-0.4-0.6-1c0-0.5-0.1-1.8-0.4-2.6c-0.5-1.3-1.2-2.2-4.7-2.6c-1.2-0.1-8.5-0.3-9.9-0.3c-0.3,0-0.5,0.2-0.5,0.7v18.6c0,0.5,0.1,0.8,0.5,0.8c1.5,0,9.6,0,11.2-0.1c1.7-0.1,2.7-0.4,3.4-1.1c0.5-0.6,0.8-1,1.1-1c0.3,0,0.5,0.1,0.5,0.6s-0.3,1.6-0.6,5.4c-0.1,1.5-0.3,4.4-0.3,4.9c0,0.6,0,1.4-0.6,1.4c-0.5,0-0.6-0.3-0.6-0.7c-0.1-0.7-0.1-1.7-0.3-2.6c-0.4-1.5-1.3-2.6-3.9-2.9c-1.3-0.1-8.3-0.2-9.9-0.2c-0.4,0-0.4,0.3-0.4,0.7v5.8c0,2.5-0.1,9.3,0,11.4c0.1,5.1,1.3,6.2,8.4,6.2c1.8,0,4.8,0,6.6-0.9c1.8-0.9,2.7-2.4,3.2-5.4c0.1-0.8,0.3-1.1,0.8-1.1c0.6,0,0.6,0.6,0.6,1.3c0,1.7-0.6,6.7-0.9,8.2c-0.5,1.9-1.1,1.9-3.8,1.9c-5.3,0-9.1-0.1-12.1-0.2c-3-0.1-5.2-0.2-7.3-0.2c-0.8,0-2.3,0-4,0.1c-1.6,0-3.4,0.1-4.8,0.1c-0.9,0-1.4-0.2-1.4-0.7c0-0.4,0.3-0.6,1.1-0.6c1,0,1.9-0.1,2.5-0.3c1.4-0.3,1.8-1.9,2-4c0.4-3.1,0.4-8.9,0.4-15.7V229.7z"/>
		<path d="M-801.5,229.7c0-11.2,0-13.2-0.1-15.6c-0.1-2.5-0.7-3.7-3-4.2c-0.6-0.1-1.8-0.2-2.7-0.2c-0.8,0-1.2-0.1-1.2-0.7c0-0.5,0.5-0.7,1.5-0.7c3.7,0,8.1,0.2,10.1,0.2c2.9,0,6.9-0.2,10.2-0.2c8.8,0,11.9,3.1,13,4.2c1.5,1.5,3.5,4.9,3.5,8.7c0,10.4-7.3,17.8-17.2,17.8c-0.3,0-1.1,0-1.5-0.1c-0.4-0.1-0.8-0.1-0.8-0.7c0-0.6,0.5-0.8,2-0.8c3.9,0,9.4-4.6,9.4-12.1c0-2.4-0.2-7.4-4.1-11c-2.5-2.4-5.4-2.9-7-2.9c-1.1,0-2.1,0.1-2.7,0.3c-0.4,0.1-0.6,0.6-0.6,1.4v29.4c0,6.8,0,12.6,0.4,15.7c0.2,2.1,0.6,3.7,2.7,4c1,0.1,2.5,0.3,3.6,0.3c0.8,0,1.1,0.2,1.1,0.6c0,0.5-0.6,0.7-1.3,0.7c-4.6,0-9-0.2-10.9-0.2c-1.6,0-6,0.2-8.8,0.2c-0.9,0-1.4-0.2-1.4-0.7c0-0.4,0.3-0.6,1.1-0.6c1,0,1.9-0.1,2.5-0.3c1.4-0.3,1.8-1.9,2-4c0.4-3.1,0.4-8.9,0.4-15.7V229.7z"/>
		<path d="M-744.6,212.5l-10.4,0.3c-4.1,0.1-5.7,0.5-6.8,2.1c-0.7,1.1-1,2-1.2,2.6c-0.1,0.6-0.3,0.9-0.8,0.9c-0.5,0-0.6-0.4-0.6-1.2c0-1.2,1.3-7.9,1.5-8.5c0.2-1,0.4-1.4,0.8-1.4c0.6,0,1.3,0.7,3,0.9c2,0.2,4.7,0.4,7,0.4h27.7c2.2,0,3.8-0.2,4.8-0.4c1.1-0.2,1.6-0.4,1.9-0.4c0.5,0,0.6,0.4,0.6,1.5c0,1.5-0.2,6.6-0.2,8.5c-0.1,0.7-0.2,1.2-0.6,1.2c-0.6,0-0.7-0.4-0.8-1.5l-0.1-0.8c-0.1-1.9-2-4-8.3-4.1l-8.8-0.2v30.1c0,6.8,0,12.6,0.4,15.7c0.2,2.1,0.6,3.7,2.7,4c1,0.1,2.5,0.3,3.6,0.3c0.8,0,1.1,0.2,1.1,0.6c0,0.5-0.6,0.7-1.3,0.7c-4.6,0-9-0.2-11-0.2c-1.6,0-6,0.2-8.8,0.2c-0.9,0-1.4-0.2-1.4-0.7c0-0.4,0.3-0.6,1.1-0.6c1,0,1.9-0.1,2.5-0.3c1.4-0.3,1.8-1.9,2-4c0.3-3.1,0.3-8.9,0.3-15.7V212.5z"/>
	</g>
</g>
</svg>
