<?xml version="1.0" encoding="utf-8"?>
<!-- Generator: Adobe Illustrator 19.0.0, SVG Export Plug-In . SVG Version: 6.00 Build 0)  -->
<svg version="1.1" xmlns="http://www.w3.org/2000/svg" xmlns:xlink="http://www.w3.org/1999/xlink" x="0px" y="0px" viewBox="-1443.3 149.8 549.4 57.6" style="enable-background:new -1443.3 149.8 549.4 57.6;fill:#fff;" xml:space="preserve">
<g>
	<g>
		<path d="M-1393.1,201.4c0,2-0.1,2.1-0.9,2.6c-4.6,2.5-11.4,3.3-16.9,3.3c-17.2,0-32.3-8.5-32.3-28.8c0-11.8,5.8-20,12.2-24c6.7-4.3,13-4.8,18.8-4.8c4.8,0,11,0.9,12.4,1.2c1.5,0.3,3.9,0.7,5.5,0.8c0.8,0.1,1,0.4,1,0.9c0,0.8-0.5,2.9-0.5,12.1c0,1.2-0.2,1.5-0.8,1.5c-0.5,0-0.6-0.4-0.7-1c-0.2-1.7-0.6-4-2.4-6.1c-2.1-2.4-7.7-5.7-15.6-5.7c-3.9,0-9,0.3-13.9,4.6c-3.9,3.5-6.4,9-6.4,18c0,15.8,9.6,27.6,24.4,27.6c1.8,0,4.3,0,6-0.8c1.1-0.5,1.3-1.5,1.3-2.7v-6.9c0-3.7,0-6.5-0.1-8.7c-0.1-2.5-0.7-3.7-3-4.2c-0.6-0.1-1.8-0.2-2.7-0.2c-0.6,0-1-0.1-1-0.6c0-0.6,0.5-0.7,1.5-0.7c3.6,0,8.1,0.2,10.2,0.2c2.2,0,5.9-0.2,8.2-0.2c0.9,0,1.4,0.1,1.4,0.7c0,0.4-0.4,0.6-0.9,0.6c-0.6,0-1,0.1-1.9,0.2c-1.9,0.4-2.6,1.6-2.7,4.2c-0.1,2.2-0.1,5.1-0.1,8.8V201.4z"/>
		<path d="M-1379.5,178.6c0-12.6,7.9-28.8,28.9-28.8c17.4,0,28.3,10.7,28.3,27.5c0,16.8-11.2,30.1-29,30.1C-1371.4,207.4-1379.5,191.6-1379.5,178.6z M-1332.1,180c0-16.5-9-26.7-20.5-26.7c-8.1,0-17.2,4.7-17.2,23c0,15.3,8.1,27.4,21.5,27.4C-1343.4,203.7-1332.1,201.2-1332.1,180z"/>
		<path d="M-1312.9,178.6c0-12.6,7.9-28.8,28.9-28.8c17.4,0,28.3,10.7,28.3,27.5c0,16.8-11.2,30.1-29,30.1C-1304.7,207.4-1312.9,191.6-1312.9,178.6z M-1265.5,180c0-16.5-9-26.7-20.5-26.7c-8.1,0-17.2,4.7-17.2,23c0,15.3,8.1,27.4,21.5,27.4C-1276.8,203.7-1265.5,201.2-1265.5,180z"/>
		<path d="M-1238.6,172.1c0-11.2,0-13.2-0.1-15.6c-0.1-2.5-0.7-3.7-3-4.2c-0.6-0.1-1.8-0.2-2.7-0.2c-0.8,0-1.2-0.1-1.2-0.7c0-0.5,0.5-0.7,1.5-0.7c3.7,0,8.1,0.2,10.1,0.2c2.2,0,6.6-0.2,10.8-0.2c8.8,0,20.4,0,28.1,8.4c3.5,3.8,6.8,9.9,6.8,18.7c0,9.3-3.7,16.3-7.6,20.5c-3.2,3.5-10.5,8.7-23.5,8.7c-2.5,0-5.4-0.2-8.1-0.4c-2.7-0.2-5.1-0.4-6.9-0.4c-0.8,0-2.3,0-4,0.1c-1.6,0-3.4,0.1-4.8,0.1c-0.9,0-1.4-0.2-1.4-0.7c0-0.4,0.3-0.6,1.1-0.6c1,0,1.9-0.1,2.5-0.3c1.4-0.3,1.8-1.9,2-4c0.4-3.1,0.4-8.9,0.4-15.7V172.1z M-1229.8,180.2c0,7.8,0.1,13.5,0.1,14.8c0.1,1.8,0.2,4.8,0.8,5.6c0.9,1.4,3.6,2.9,9.2,2.9c7.1,0,11.9-1.5,16.1-5.3c4.5-4,5.9-10.7,5.9-18.3c0-9.3-3.7-15.4-6.7-18.4c-6.4-6.5-14.4-7.4-19.9-7.4c-1.4,0-4,0.2-4.5,0.5c-0.6,0.3-0.8,0.7-0.8,1.5c-0.1,2.5-0.1,8.9-0.1,14.7V180.2z"/>
		<path d="M-1175.2,205.5c-1.1-0.5-1.3-0.9-1.3-2.5c0-4,0.3-8.5,0.3-9.6c0.1-1.1,0.3-1.9,0.8-1.9c0.6,0,0.7,0.7,0.7,1.2c0,1,0.3,2.5,0.6,3.7c1.5,5.4,5.7,7.4,10,7.4c6.3,0,9.4-4.5,9.4-8.4c0-3.6-1-7-6.9-11.8l-3.2-2.6c-7.7-6.3-10.4-11.5-10.4-17.4c0-8.1,6.4-13.9,16.2-13.9c4.6,0,7.5,0.7,9.3,1.3c0.6,0.1,1,0.4,1,0.9c0,1-0.3,3.1-0.3,8.8c0,1.6-0.2,2.2-0.8,2.2c-0.5,0-0.7-0.4-0.7-1.3c0-0.7-0.3-2.9-1.8-4.9c-1-1.4-3.1-3.6-7.6-3.6c-5.2,0-8.3,3.2-8.3,7.6c0,3.4,1.6,6,7.4,10.6l2,1.5c8.5,6.7,11.5,11.8,11.5,18.7c0,4.3-1.5,9.3-6.6,12.8c-3.5,2.4-7.4,3-11.1,3C-1169,207.4-1172.2,206.9-1175.2,205.5z"/>
		<path d="M-1102.1,173.7c-2.9-4.1-3.5-7.1-3.6-10.4c-0.1-5.8,4.8-13.5,17-13.5c3.4,0,6.6,0.7,8.5,1.5c1.2,0.4,1.2,1,1.2,1.9c0,2.4-0.6,8.3-0.8,9.4c-0.1,1.1-0.4,1.2-0.8,1.2s-0.5-0.3-0.5-1.4c0-1.9-0.5-4.3-2-6.2c-1.4-1.8-3.9-3.3-7.8-3.3c-2.9,0-7.5,2.1-7.5,8.4c0,6.9,6,12.8,11.6,19.3c2.4,2.9,11,11,12.3,12.3c1.4-2.1,3.4-6.8,3.4-11.3c0-1.1-0.3-2.4-1.3-3.4c-0.9-0.9-2.4-1.1-3.4-1.1c-0.4,0-0.8-0.1-0.8-0.6c0-0.6,0.6-0.7,1.1-0.7c1.7,0,4.5,0.1,8.4,0.5c1.3,0.1,2.4,0.6,2.4,1.5c0,5.7-2.9,12.5-6.9,17.4c4.7,4,7.8,6,9.7,7.2c2.2,1.4,6.1,2.6,7.5,2.6c0.6,0,1,0.1,1,0.7c0,0.4-0.6,0.7-2.1,0.7h-5.4c-8,0-10.5-0.8-16.5-5.7c-2.3,2.2-7,6.7-16.6,6.7c-15,0-19.5-9.8-19.5-16.2C-1113.5,182.5-1106.3,175.9-1102.1,173.7z M-1080.2,198.4c-4.1-3.7-10.8-10.6-12.6-12.6c-1.8-2.1-6.3-7.3-7.5-9.2c-2.4,1.8-4.8,5.3-4.8,11.2c0,9.2,6.2,15.1,13.4,15.1C-1086.3,202.8-1081.7,199.8-1080.2,198.4z"/>
		<path d="M-1020.7,187.6c-0.3,0-0.5,0.1-0.6,0.6l-3.8,10.1c-0.7,1.8-1,3.6-1,4.5c0,1.3,0.6,2.3,2.8,2.3h1c0.8,0,1.1,0.1,1.1,0.6c0,0.6-0.4,0.7-1.2,0.7c-2.2,0-5.3-0.2-7.4-0.2c-0.8,0-4.6,0.2-8.3,0.2c-0.9,0-1.3-0.1-1.3-0.7c0-0.4,0.3-0.6,0.8-0.6c0.6,0,1.6-0.1,2.2-0.1c3.2-0.4,4.5-2.9,6-6.6l17.6-45.6c0.8-2.1,1.3-2.9,2-2.9c0.6,0,1,0.7,1.8,2.4c1.7,4,12.9,33.4,17.4,44.6c2.7,6.6,4.7,7.6,6.2,8c1,0.2,2.1,0.3,2.9,0.3c0.6,0,0.9,0.1,0.9,0.6c0,0.6-0.6,0.7-3.2,0.7c-2.5,0-7.6,0-13.2-0.1c-1.3-0.1-2.1-0.1-2.1-0.6c0-0.4,0.3-0.6,1-0.7c0.5-0.1,1-0.8,0.6-1.7l-5.6-15.1c-0.1-0.4-0.3-0.5-0.7-0.5H-1020.7z M-1006.4,183.9c0.4,0,0.4-0.2,0.4-0.4l-6.3-18.1c-0.1-0.3-0.1-0.7-0.3-0.7s-0.4,0.4-0.4,0.7l-6.4,18c-0.1,0.3,0,0.5,0.3,0.5H-1006.4z"/>
		<path d="M-972.7,172.1c0-11.2,0-13.2-0.1-15.6c-0.1-2.5-0.7-3.7-3-4.2c-0.6-0.1-1.8-0.2-2.7-0.2c-0.8,0-1.2-0.1-1.2-0.7c0-0.5,0.5-0.7,1.5-0.7c3.7,0,8.1,0.2,10.1,0.2c2.9,0,6.9-0.2,10.2-0.2c8.8,0,11.9,3.1,13,4.2c1.5,1.5,3.5,4.9,3.5,8.7c0,10.4-7.3,17.8-17.2,17.8c-0.3,0-1.1,0-1.5-0.1c-0.4-0.1-0.8-0.1-0.8-0.7c0-0.6,0.5-0.8,2-0.8c3.9,0,9.4-4.6,9.4-12.1c0-2.4-0.2-7.4-4.1-11c-2.5-2.4-5.4-2.9-7-2.9c-1.1,0-2.1,0.1-2.7,0.3c-0.4,0.1-0.6,0.6-0.6,1.4V185c0,6.8,0,12.6,0.4,15.7c0.2,2.1,0.6,3.7,2.7,4c1,0.1,2.5,0.3,3.6,0.3c0.8,0,1.1,0.2,1.1,0.6c0,0.5-0.6,0.7-1.3,0.7c-4.6,0-9-0.2-10.9-0.2c-1.6,0-6,0.2-8.8,0.2c-0.9,0-1.4-0.2-1.4-0.7c0-0.4,0.3-0.6,1.1-0.6c1,0,1.9-0.1,2.5-0.3c1.4-0.3,1.8-1.9,2-4c0.4-3.1,0.4-8.9,0.4-15.7V172.1z"/>
		<path d="M-925.1,172.1c0-11.2,0-13.2-0.1-15.6c-0.1-2.5-0.7-3.7-3-4.2c-0.6-0.1-1.8-0.2-2.7-0.2c-0.8,0-1.2-0.1-1.2-0.7c0-0.5,0.5-0.7,1.5-0.7c3.7,0,8.1,0.2,10.1,0.2c2.9,0,6.9-0.2,10.2-0.2c8.8,0,11.9,3.1,13,4.2c1.5,1.5,3.5,4.9,3.5,8.7c0,10.4-7.3,17.8-17.2,17.8c-0.3,0-1.1,0-1.5-0.1c-0.4-0.1-0.8-0.1-0.8-0.7c0-0.6,0.5-0.8,2-0.8c3.9,0,9.4-4.6,9.4-12.1c0-2.4-0.2-7.4-4.1-11c-2.5-2.4-5.4-2.9-7-2.9c-1.1,0-2.1,0.1-2.7,0.3c-0.4,0.1-0.6,0.6-0.6,1.4V185c0,6.8,0,12.6,0.4,15.7c0.2,2.1,0.6,3.7,2.7,4c1,0.1,2.5,0.3,3.6,0.3c0.8,0,1.1,0.2,1.1,0.6c0,0.5-0.6,0.7-1.3,0.7c-4.6,0-9-0.2-10.9-0.2c-1.6,0-6,0.2-8.8,0.2c-0.9,0-1.4-0.2-1.4-0.7c0-0.4,0.3-0.6,1.1-0.6c1,0,1.9-0.1,2.5-0.3c1.4-0.3,1.8-1.9,2-4c0.4-3.1,0.4-8.9,0.4-15.7V172.1z"/>
	</g>
</g>
</svg>
