<?xml version="1.0" encoding="utf-8"?>
<!-- Generator: Adobe Illustrator 19.0.0, SVG Export Plug-In . SVG Version: 6.00 Build 0)  -->
<svg version="1.1" id="レイヤー_1" xmlns="http://www.w3.org/2000/svg" xmlns:xlink="http://www.w3.org/1999/xlink" x="0px"
	 y="0px" viewBox="0 0 74 62.1" style="enable-background:new 0 0 74 62.1;" xml:space="preserve">
<style type="text/css">
	.st0{fill:#FFFFFF;}
</style>
<g id="XMLID_4604_">
	<path id="XMLID_4738_" class="st0" d="M2.5,55.1H2.2C2.3,55.1,2.4,55.1,2.5,55.1z"/>
	<polygon id="XMLID_4737_" class="st0" points="15.5,35 15.5,35 15.1,35 	"/>
	<path id="XMLID_4736_" class="st0" d="M1.7,61.8c0,0.1,0,0.1,0,0.2h0.9L1.7,61.8z"/>
	<path id="XMLID_4735_" class="st0" d="M20.9,7.1h6.5l0,0l1.3-0.5c-0.2-0.8-1.3,0-2-0.2l0.6-1.1c-1.9-1.2-2.9-1-5.3-0.9
		c0,0.2,0.2,0.6,0,0.7l2.9,0.5c-1,0.5-3,0.3-4.4-0.6c0.2,0.6,0.5,1,1.1,1.6C21.5,6.2,21.3,7.1,20.9,7.1z"/>
	<path id="XMLID_4734_" class="st0" d="M5.8,7.1c0,0,0-0.1,0.1-0.1l0.1,0.1h7c1.9-3-2.3-0.6-3.7-1.6c0,0,0,0-0.1,0
		c0.1,0.3,0.1,0.6,0,0c0,0,0,0,0,0c0,0,0-0.1-0.1-0.1C9.1,5.3,9.1,5.2,9,5.1c0.1,0,0.1,0.1,0.2,0.2c0,0,0.1,0.1,0.1,0.1
		C9.8,5.3,9.1,4.3,9,4.2C7.3,4.5,8.9,5.7,7.5,5.9C6.2,5.5,4,5.7,2.5,6.3c0.2,0.2,0.2,0.8,0.2,0.8H5.8z"/>
	<path id="XMLID_4730_" class="st0" d="M15,0.1H0v2.4l1.7,0.4c0.2,0.6-1.9-0.3-1.3,0.9c0.3,0.4,1.1,0.1,0.9-0.3c0,0,0-0.1,0-0.1
		c0,0,0,0.1,0,0.1C1.4,3.7,1.8,3.7,1.4,4C2.9,3,5.2,3.4,5.9,1.6L5,1.5l3.5-0.9L8.3,0.5c2.2-0.5,5.1,0.8,6.7-0.3
		C15,0.1,15,0.1,15,0.1z M0.6,1.8L0.4,1.2L1,1.5l1-0.7L0.6,1.8z M3.2,1.8l0.2-0.3L2.5,1.2c0.7-0.7,1.4,0.4,1.9,0.8L3.2,1.8z"/>
	<path id="XMLID_4668_" class="st0" d="M41,61.7c0.5,0.1,0.6,0.3,0.6,0.3h8.9c-0.2-1-0.2-1.6,0.8-2c-0.9-0.8-2.1-1.6-3.6-1.2
		l0.2,0.6l-1.2-1.7c-0.3,0.2-0.8,0.6-0.3,0.7c-0.7,0.2-0.4-1.1,0.6-1.1c-1.2-0.3-3.1-1.1-4.1-0.6l0.5,0.3l-1.7-0.2l0,0.2
		c-1.5,0.4-2.2-0.1-4.4-0.4c-0.3,1.1,0.7,1.6,1.6,2.1c-0.8,0.9-1.7-0.4-2.7-0.5c0,0,0,0.1,0,0.1l-0.7,0c0.2-0.1,0.5-0.2,0.7-0.1
		c0.1-1-2.1-1.2-3.4-1.4l0.8-0.4l-1.2-0.8c0.6-0.6,4.6,0.8,5.3-0.7c0,0,0,0-0.1,0c0,0,0,0,0,0H18.9c0.5,0-0.1,0.5-0.1,0.6
		c-0.5-0.1-0.4-0.4-0.4-0.7c0,0,0,0,0,0h-1.4c-0.6,0-1.7,0.4-0.5,0.8l-2.4,0.2l0.2,1l-2.7-1.1c1.3,0,0.2-1,0.8-1H6.4
		c0.8,0,1.6,1.1,2.3,1.8l-1,0.2l-1.2,0.8C6.9,57.8,7.3,58,7.6,58c-2.2,0.2-6,0.8-7.6-0.2l0.7-0.5c0.3-0.2-0.4-0.5-0.5-0.6l2,0.2
		C1,56.4,2.9,55,3.8,56c0.5,0.3-1.9-0.3-1.5,0.6l1.2,1c0.5-0.1,1.3,0,1-0.7c-0.3,0-0.3,0-0.5-0.1c0.6,0,1.3,0.1,1.9,0.2
		c-0.3-0.4-1.1-0.8-1.5-0.9c0,0.1,0,0.2,0,0.2l0-0.2c0,0,0,0,0,0c0-0.3,0-1.1,0-1.1H3.9l-0.4,0.4c0.1-0.9-2.1,0.6-1.9-0.4H0v6.6
		c0,0,0.7,0.1,1.5,0.3c0.1-0.2,0-0.3-0.1-0.4c-0.2,0-0.4-0.1-0.5-0.1c0,0-0.1,0-0.1,0c0,0,0.1,0,0.1,0c0.2,0,0.4,0,0.5,0.1
		c0.7,0.2,1.6,0.5,1.1-0.3c1.2,0.3,3.2-0.4,3.6,0.8L6,62.1h2.2c-0.1,0-0.2-0.4-0.3-0.6c0.7,0.2,1.9-0.4,1.4,0.6h3.4
		c1,0,1.9-0.5,2.4-0.9c0.3,0.2,0.5,0.5,0.9,0.8c3.5-0.4,4-0.5,7.4-1L23,60.7c1.5,0.2,1.3,0.3,1.3,1.3h2.1c0.4-1,0.7-1.1,1.8-0.8
		c0.5,0.2,1.1,0.8,1.8,0.8h11C41.1,62.1,41.1,61.9,41,61.7z M45.8,59.9l1,0.7l-1.2-0.1L45.8,59.9z M20.7,61.1l-2.2-1
		c2,0,0-0.9,1-1.4c2-0.3,1.6,0.4,2.5,0.8c0.2-0.1,0.5,0,0.9,0.3c-0.4-0.1-0.7-0.2-0.9-0.3C21.3,59.7,21.9,61.1,20.7,61.1z
		 M39.7,59.1l1.3-0.9l0.2,1.2C40.7,59.5,40.2,59.4,39.7,59.1z"/>
	<path id="XMLID_4665_" class="st0" d="M66.7,33.1c0.8,0.7-0.5,2,0.3,2h2c0.5,0,0.9-1,1.3,0H74v-5.6c-1-0.2-1.9-0.4-0.9-1.4h-8.7
		l1.4,0.9l0-0.5l1.6,1l-1.2,0.3c0.7,0,1.4,0.9,2,0.2c0.4,0.9-0.1,1.5-1.4,2.6l-0.1-1.1c-0.7,0-0.4-1.8-1.9-0.8
		c1.7,0.4,0.6,1.7-0.3,2.3c-0.6-2.6-1.9,0.4-3.7,0.2c0.9,0.2,1.8,0.6,2.7,0.5l-0.1,0.8c0.4,0.2,0.6,0.5,0.8,0.5h0.8
		C65.3,34.1,64.7,33.2,66.7,33.1z M70.6,33.9l2,0.2c-0.1,0.6-1.7-0.2-1.2,0.8C71,34.6,70.5,34.3,70.6,33.9z"/>
	<path id="XMLID_4664_" class="st0" d="M14.4,55.7c0.1-0.3-0.2-0.5-0.5-0.8h-1.3L14.4,55.7z"/>
	<path id="XMLID_4657_" class="st0" d="M47.2,35l0.4,0.1h2c0.1-1-1.6-0.3-2.3-0.9c-1.1,1-3,0-4.5-0.1c-3.7,1.7-0.9-2.4-4.3-2.1
		l3.2-0.2c-1.3,0.5,0.4,1.1,1.2,1l-0.4-0.9c0.5,0.8,2,0.2,2-0.3c0-0.2-0.1-0.3-0.2-0.4c-0.3,0-0.5-0.1-0.8-0.2
		c-1,0.1-2.6,0.7-3.3-0.3c1,0.2,1.2,0.1,0.8-0.6l3.2,0.1l-1,0.7c0.1,0,0.2,0.1,0.3,0.1c0.3,0,0.6,0,0.8,0.2c0.2,0,0.3,0,0.5,0
		c-0.4-0.9,1.5-0.4,0.5-1.3c1.2-0.1,3.7-0.3,3.9,1c0.5-0.3,1.2-0.6,1-0.9c1.6,1.7,3.7-0.5,4.4,0.2c0.3,0.4,0.5,1,1.4,1.1l0-0.7
		c0.7,0.2,0,0.5,0.2,0.8l-1.7-0.4c2.2,1,0.3,2.6,2.3,3.9l-1.9,0c0.1,0.1,0.1,0.3,0.2,0.3h7.4c-0.7-1-3.3,0.8-3.9-0.8
		c1-0.9,0-0.7,1.7-0.5c0.3-0.3,0.4-0.5,0.4-0.7c0,0,0,0,0,0c0,0,0,0,0,0c0-0.4-0.4-0.6,0.8-1c2-0.3,1.8-0.6,3.3-1.2l-0.4-0.1
		c-0.2,0.1-0.4,0-0.9-0.3l0.9,0.3c0.4-0.2,0.3-0.9,0.9-1.1c-1.1,0-1.4-0.6-2-1.6h-4.3l0,0l0,0h-3.3c0,0,0,0,0,0.1c0,0,0-0.1-0.1-0.1
		h-4.8l0,0l0,0h-5.9c-0.4,0-0.6,0.6-0.5,1.3c-0.3-0.2-0.5-1.3-0.8-1.3H32.9c-0.1,0-0.2,0.5-0.4,0.6c-0.3-0.3-0.4-0.6-0.3-0.6H7.4
		c0.1,0,0.1,0.1,0.2,0.1l-0.8-0.1c-0.2,0.1,0,0.2,0.2,0.3L5,28.1c0.2,0.6,1.4,0.4,0.2,1.2c0.2,0,0.4,0,0.5,0.1c0.1,0,0.2,0,0.3,0
		c0,0.1,0.1,0.2,0.1,0.3c0.4,0.3,0.9,0.6,1.6,0.4c-0.9,0.6-1.2,0.2-1.6-0.4c-0.1-0.1-0.3-0.2-0.5-0.2c-1.9,0.1,0.6,2-1.8,1.3
		c-0.8,1.5,1.4,0.7,1.6,1.7C3,33,4.1,30.6,1.4,31.3l0.4,0.2C1.3,31.7,1,31.5,0,31.3v3.8h9c0.5,0,0.9-0.3,1.3-0.6
		c-0.2-0.1-0.4-0.3-0.5-0.4l0.5,0.3c0,0,0,0,0,0c0.5,0.3,1.3,0.5,1.6,0.5c0.3-0.2-0.7-0.4,0.2-0.5c1.1,0.7,2.2-0.3,3.5,0.7h1.6
		l0.6-0.1c0,0,0,0.1,0,0.1h0.7c-0.1,0-0.1-0.5,0.3-0.5l1,0.5h27.7L47.2,35z M56.9,32.5L56,31.7l1.4,0.2L56.9,32.5z M24,31.8
		c-0.2-0.2-0.4-0.3-0.6-0.4c-0.2,0-0.3,0-0.4-0.1c-0.3-0.1-0.6-0.1-0.9-0.2c0.7-0.5,0.7,0,0.9,0.2c0.1,0,0.3,0.1,0.4,0.1
		c0.1,0,0.2-0.1,0.4-0.2l0-0.2C24.1,30.5,24,31.3,24,31.8z M31.1,32.8l0.8,0.3l-1.2,0.6l0.5-0.3c-0.9-1.9-4.9-0.9-6.1-1.3
		c-0.7-0.7,1-1.1,1.5-0.8L26,30.4l1,0.7c2.4-2.4,2.6,0.8,4.7-1.9c3.2,0.5-0.4,1.9,2.3,3l0-0.2l0,0.9C33.6,31.9,31.3,31.8,31.1,32.8z
		 M36,33.5l-0.7-0.9l1,0.4L36,33.5z M35.5,32l-0.2-0.6c-0.8-0.2-0.2-0.8-0.1-1.2c0-0.1-0.1-0.2-0.1-0.2c0.1,0,0.1,0.1,0.1,0.2
		c0.5,1.1,1.2,0.1,3,0.4C37,31.2,36.8,31.1,35.5,32z"/>
	<path id="XMLID_4653_" class="st0" d="M57.4,55.8c3.7,0.6-1.8,1.5,1.3,3c-0.6-1.2,1,0.5,1.5-0.6c0.2,2,3.1,1.8,3.5,3.8h1.8
		c0,0,0.1-0.2,0.1-0.3c-0.2-0.1-0.5-0.4-0.7-0.2l0,0.1c0.1,0.1,0.1,0.2-0.1,0.2l0.1-0.3c-0.3-0.3-1.5-0.6-0.5-1.1l0.7,0.7
		c0.5-0.6,1.6-1.6,3.2-0.6c0.4,0.4-0.3,0.5-0.3,0.9c-0.5,0.1-1.2,0.4-2,0.1l0.1,0.6h2.8c0,0,0,0,0,0c0,0,0,0,0,0H74v-7H51
		c0,0,0,0,0,0C52.9,55.6,55.3,56.2,57.4,55.8z M70.2,55.6l-0.5,0.8l-0.2-0.8L70.2,55.6z M68,55.5c0.7,0.9-1,1.4-1.3,1.6l0.7,0.4
		l-2.2-0.1c0.5-0.6,0.1-1.3-0.2-1.7L68,55.5z"/>
	<path id="XMLID_4621_" class="st0" d="M0,30v0.8l0.4-0.3C0.3,30.3,0.2,30.1,0,30z"/>
	<path id="XMLID_4620_" class="st0" d="M0,3.6C0,3.6,0,3.6,0,3.6V2.9V3.6z"/>
	<path id="XMLID_4619_" class="st0" d="M0,4.9v2.2h1.3c0.1,0,0.1-0.8,0.5-1C0.3,6.3,1,5.1,0,4.9z"/>
	<path id="XMLID_4610_" class="st0" d="M23.1,0.9c-0.4-0.5-1.2-0.9-2.2-0.9h-2.3c-0.3,0-0.7,0-0.9,0.1l0.1-0.1h-2.4
		c-0.1,0-0.2,0.1-0.3,0.2C15.3,0.5,16,1,14.8,1.1c1,0.7,2.7,0.4,3.7-0.1c-0.3,0.5,0.2,0.8-1,1.4c1,0,1.5,0.1,1.8-0.8
		c0.3-0.7,2.4,0.2,3.6,0.5l-1.9,0.1L21.6,3c0.7,0.2,2.4,0.2,2.3-0.5l-0.2-0.1c1.2,0.1,4.2,0.7,4-0.1c1.7-0.3,0.2,1.2,1.4,1.1
		c-0.6,0.9-0.6,1-2,1.2c1,0.5,1.7,1.4,1.7,2.4H74V5.3c0,0-1-0.1-1.4-0.2C73.1,4.8,74,4.8,74,4.9V3.4c-1,0-1.4-0.1-1.8-0.4L72,3.6
		L70,2.8c-0.2-0.3,3.5-1.1,0.6-1.8c1,0.7-1.3,0.9-1.2,0.4C71.3,0.6,73-0.3,74,0.1V0.1h-7.7c0.4,0,0.7,0.6,0.9,1
		c-1.4-1.1-1.9,0-3.5-1h-0.6c0.1,0,0.7,0.8,0.4,0.6c-2.4,0-5.4,0.4-7.3-0.6h-2l-0.3,0.2c-0.1-0.1-0.1-0.2-0.2-0.2H42.4
		c0.8,0,1.4,0.7,1.5,1.5c-0.1-0.6,0.6-0.4,1.2-0.3c0.1-0.1,0.2-0.2,0.6,0.1c-0.2,0-0.4,0-0.6-0.1c-0.1,0.3,0.4,1.4,0.2,0.9
		c-1,0-1.1-1.1-2.4-0.2c-0.1,0.3,0,0.7,0.7,0.9l-1.2-0.1l0.9,1.7c-0.7,0-1.2-1-1.7-0.2l0.3,0.2c-1.2,0.1-1.8,0.6-2.7,0.3l0.1-1.3
		c-0.8,0.1-1.1,0-1.3-0.3c-0.1,0-0.1,0-0.2,0c-0.8,0.1-1.7,0.6-1.8-0.1c0.7,0.1,1.3,0.1,1.8,0.1c0.1,0,0.1,0,0.2,0
		c-0.3-0.5,0.4-1.4-1.3-1.4l0.1,0.8C37,2.8,37,2.9,37,3.1l-0.1-0.5c-0.5-1.3-3.7-0.7-3.5-1.2l0,0.2c-3.8,1.1-3.3-1.6-6.5-1.7
		c-0.2,0.1-0.7,0-1.3,0h-1.7C23.5,0.1,23.1,0.4,23.1,0.9z M70.3,3.7c-0.3,0-0.8-0.1-1,0.2c0.8-1-1.5-0.1-1.4-1.1L70.3,3.7z
		 M60.4,3.7l1.7,0.2c-0.5,0.6-1.1,1-2.1,1.1L60.4,3.7z M58.4,3.5l-0.3,0l0.5,1.2c-0.5-0.6-1.5,0.4-1.5-0.5c0.2-0.1,0.3,0,0.5-0.1
		l-1-0.7C57.2,3.4,58.3,3.1,58.4,3.5z M31,2.6L31.1,4c-0.4-0.4-0.6-1.5-1.6-1.4L31,2.6z"/>
	<path id="XMLID_4609_" class="st0" d="M37.6,55C37.6,55,37.6,55,37.6,55c0.1,0,0.2,0,0.2,0H37.6z"/>
	<path id="XMLID_4608_" class="st0" d="M53.1,62C53.1,62,53.1,61.9,53.1,62c-0.3-0.2-0.5-0.1-0.7,0H53.1z"/>
	<path id="XMLID_4607_" class="st0" d="M42.2,55.1h-3.1C40.8,55.1,41.4,56.1,42.2,55.1z"/>
	<path id="XMLID_4606_" class="st0" d="M13,7.1h3C15,7.1,14.5,6.1,13,7.1z"/>
	<path id="XMLID_4605_" class="st0" d="M19.4,7c0,0,0-0.1,0-0.1L19.2,7H19.4z"/>
</g>
</svg>
