<?xml version="1.0" encoding="utf-8"?>
<!-- Generator: Adobe Illustrator 19.0.0, SVG Export Plug-In . SVG Version: 6.00 Build 0)  -->
<svg version="1.1" xmlns="http://www.w3.org/2000/svg" xmlns:xlink="http://www.w3.org/1999/xlink" x="0px" y="0px" viewBox="-1744.2 122.3 601.8 54.9" style="enable-background:new -1744.2 122.3 601.8 54.9;fill:#fff;" xml:space="preserve">
<g>
	<path d="M-1738,143.6c0-10.6,0-12.6-0.1-14.8c-0.1-2.4-0.8-3.6-2.4-3.9c-0.8-0.2-1.7-0.3-2.5-0.3c-0.7,0-1.1-0.1-1.1-0.7c0-0.4,0.6-0.6,1.7-0.6c2.7,0,7.1,0.2,9.1,0.2c1.8,0,5.9-0.2,8.5-0.2c0.9,0,1.5,0.1,1.5,0.6c0,0.6-0.4,0.7-1.1,0.7s-1.3,0.1-2.1,0.2c-1.9,0.3-2.5,1.5-2.6,4c-0.1,2.2-0.1,4.2-0.1,14.8v12.3c0,6.8,0,12.3,0.3,15.3c0.2,1.9,0.7,3.2,2.8,3.4c1,0.1,2.5,0.3,3.6,0.3c0.8,0,1.1,0.2,1.1,0.6c0,0.5-0.6,0.7-1.3,0.7c-4.6,0-9-0.2-10.9-0.2c-1.6,0-6,0.2-8.8,0.2c-0.9,0-1.4-0.2-1.4-0.7c0-0.3,0.3-0.6,1.1-0.6c1.1,0,1.9-0.1,2.5-0.3c1.4-0.3,1.8-1.5,2-3.5c0.3-2.9,0.3-8.5,0.3-15.3V143.6z"/>
	<path d="M-1700.7,166.7c0.1,5.5,1,7.3,2.5,7.8c1.2,0.4,2.5,0.5,3.6,0.5c0.8,0,1.2,0.1,1.2,0.6c0,0.6-0.6,0.7-1.6,0.7c-4.6,0-7.4-0.2-8.7-0.2c-0.6,0-3.9,0.2-7.6,0.2c-0.9,0-1.5-0.1-1.5-0.7c0-0.4,0.4-0.6,1.1-0.6c0.9,0,2.2-0.1,3.2-0.4c1.8-0.6,2.1-2.6,2.2-8.7l0.6-41.2c0-1.4,0.2-2.4,0.9-2.4c0.8,0,1.4,0.9,2.6,2.2c0.8,0.9,11.5,12.1,21.7,22.3c4.8,4.8,14.2,14.8,15.4,16h0.4l-0.7-31.4c-0.1-4.3-0.7-5.6-2.4-6.3c-1-0.4-2.7-0.4-3.7-0.4c-0.8,0-1.1-0.2-1.1-0.6c0-0.6,0.8-0.6,1.8-0.6c3.6,0,7,0.2,8.5,0.2c0.8,0,3.4-0.2,6.9-0.2c0.9,0,1.6,0.1,1.6,0.6c0,0.4-0.4,0.6-1.3,0.6c-0.7,0-1.3,0-2.1,0.2c-2,0.6-2.5,2-2.6,6l-0.8,44.2c0,1.5-0.3,2.2-0.9,2.2c-0.8,0-1.6-0.8-2.4-1.5c-4.4-4.2-13.4-13.4-20.7-20.6c-7.6-7.6-15.4-16.1-16.7-17.4h-0.2L-1700.7,166.7z"/>
	<path d="M-1627.8,155.9c0,6.7,0,12,0.4,14.9c0.2,2,0.6,3.6,2.7,3.9c1,0.1,2.5,0.3,3.5,0.3c0.9,0,1.2,0.2,1.2,0.6c0,0.5-0.5,0.7-1.5,0.7c-4.4,0-8.8-0.2-10.6-0.2s-6.2,0.2-8.9,0.2c-1,0-1.5-0.1-1.5-0.7c0-0.3,0.3-0.6,1-0.6c1.1,0,1.9-0.1,2.5-0.3c1.4-0.3,1.8-1.8,2-3.9c0.4-2.9,0.4-8.2,0.4-14.9v-12.3c0-10.6,0-12.6-0.1-14.8c-0.1-2.4-0.7-3.5-3-4c-0.6-0.1-1.8-0.2-2.7-0.2c-0.7,0-1.2-0.1-1.2-0.6c0-0.6,0.6-0.7,1.6-0.7c1.8,0,3.9,0.1,5.7,0.1c1.8,0.1,3.4,0.1,4.4,0.1c2.7,0,16.9,0,18.5-0.1c1.3-0.1,2.2-0.1,2.9-0.3c0.4-0.1,0.8-0.4,1.1-0.4c0.3,0,0.5,0.3,0.5,0.6c0,0.5-0.4,1.3-0.6,3.2c-0.1,0.7-0.2,4.8-0.4,5.7c-0.1,0.6-0.2,1-0.7,1c-0.5,0-0.6-0.3-0.7-1.1c0-0.6,0-1.7-0.4-2.7c-0.5-1-2-2-4.6-2.1l-10.8-0.2c-0.4,0-0.6,0.2-0.6,1v17.5c0,0.4,0.1,0.6,0.5,0.6l9-0.1c1.2,0,2.2,0,3.2-0.1c1.3-0.1,2.3-0.4,3-1.3c0.4-0.4,0.5-0.7,0.9-0.7c0.3,0,0.4,0.2,0.4,0.6s-0.4,2.2-0.6,4.3c-0.1,1.4-0.3,4.6-0.3,5.1c0,0.6,0,1.3-0.7,1.3c-0.4,0-0.6-0.5-0.6-1s-0.1-1.3-0.4-2.2c-0.4-1-1.4-2.2-3.6-2.5c-1.8-0.2-9.2-0.2-10.4-0.2c-0.3,0-0.5,0.1-0.5,0.6V155.9z"/>
	<path d="M-1598.9,149.8c0-12,7.9-27.4,28.9-27.4c17.4,0,28.3,10.2,28.3,26.2c0,16-11.2,28.7-29,28.7C-1590.8,177.2-1598.9,162.2-1598.9,149.8z M-1551.5,151.1c0-15.7-9-25.4-20.5-25.4c-8.1,0-17.2,4.5-17.2,21.9c0,14.6,8.1,26.1,21.5,26.1C-1562.9,173.7-1551.5,171.3-1551.5,151.1z"/>
	<path d="M-1524.6,143.6c0-10.6,0-12.6-0.1-14.8c-0.1-2.4-0.7-3.5-3-4c-0.6-0.1-1.8-0.2-2.7-0.2c-0.8,0-1.2-0.1-1.2-0.6c0-0.5,0.5-0.6,1.5-0.6c3.7,0,8.1,0.2,9.6,0.2c2.4,0,7.7-0.2,9.9-0.2c4.4,0,9.1,0.4,12.9,3c2,1.3,4.8,4.9,4.8,9.6c0,5.2-2.2,9.9-9.2,15.7c6.2,7.8,11.1,14.1,15.2,18.4c3.9,4.1,6.8,4.6,7.8,4.8c0.8,0.1,1.4,0.2,2,0.2s0.8,0.2,0.8,0.6c0,0.6-0.5,0.7-1.3,0.7h-6.7c-3.9,0-5.7-0.3-7.5-1.3c-3-1.6-5.7-4.9-9.6-10.3c-2.8-3.9-6-8.6-6.9-9.7c-0.4-0.4-0.8-0.5-1.3-0.5l-6.1-0.1c-0.4,0-0.6,0.1-0.6,0.6v1c0,6.5,0,12,0.4,15c0.2,2,0.6,3.6,2.7,3.9c1.1,0.1,2.6,0.3,3.4,0.3c0.6,0,0.8,0.2,0.8,0.6c0,0.5-0.5,0.7-1.4,0.7c-4.1,0-9.2-0.2-10.3-0.2c-1.3,0-5.7,0.2-8.5,0.2c-0.9,0-1.4-0.2-1.4-0.7c0-0.3,0.3-0.6,1.1-0.6c1.1,0,1.9-0.1,2.5-0.3c1.4-0.3,1.8-1.8,2-3.9c0.4-2.9,0.4-8.5,0.4-14.9V143.6z M-1516.4,149.1c0,0.8,0.1,1,0.6,1.3c1.5,0.5,3.6,0.7,5.3,0.7c2.8,0,3.7-0.3,5-1.2c2.1-1.5,4.1-4.8,4.1-10.5c0-9.9-6.6-12.8-10.7-12.8c-1.8,0-3,0.1-3.7,0.3c-0.5,0.1-0.6,0.4-0.6,1V149.1z"/>
	<path d="M-1467.5,124.1c0.2-1.2,0.6-1.8,1.2-1.8s1,0.3,1.9,2.2l19.1,38.9l19-39.4c0.6-1.1,0.9-1.7,1.5-1.7c0.6,0,1,0.7,1.3,2.2l6.4,42.8c0.6,4.4,1.3,6.4,3.4,7.1c2,0.6,3.4,0.7,4.3,0.7c0.6,0,1.1,0.1,1.1,0.5c0,0.6-0.8,0.8-1.8,0.8c-1.8,0-11.4-0.1-14.2-0.3c-1.6-0.1-2-0.3-2-0.8c0-0.3,0.3-0.6,0.8-0.8c0.4-0.1,0.6-1,0.4-3l-4.2-30.5h-0.3l-15.3,31.2c-1.6,3.3-2,3.9-2.6,3.9c-0.6,0-1.3-1.4-2.5-3.5c-1.7-3.2-7.2-13.9-8.1-15.9c-0.6-1.5-4.8-9.7-7.3-15h-0.3l-3.6,27.3c-0.1,1.3-0.2,2.2-0.2,3.3c0,1.3,0.9,2,2.1,2.2c1.3,0.3,2.2,0.4,2.9,0.4c0.6,0,1.1,0.1,1.1,0.5c0,0.6-0.6,0.8-1.7,0.8c-2.9,0-6.1-0.2-7.4-0.2c-1.3,0-4.7,0.2-6.9,0.2c-0.7,0-1.3-0.1-1.3-0.8c0-0.4,0.4-0.5,1.1-0.5c0.6,0,1,0,2.1-0.2c2-0.4,2.5-3.2,2.9-5.5L-1467.5,124.1z"/>
	<path d="M-1392.5,158.4c-0.4,0-0.5,0.1-0.6,0.6l-3.8,9.6c-0.7,1.8-1.1,3.4-1.1,4.3c0,1.3,0.6,2.2,2.8,2.2h1.1c0.8,0,1,0.1,1,0.6c0,0.6-0.4,0.7-1.2,0.7c-2.2,0-5.3-0.2-7.4-0.2c-0.8,0-4.6,0.2-8.3,0.2c-0.9,0-1.3-0.1-1.3-0.7c0-0.4,0.3-0.6,0.8-0.6c0.6,0,1.6-0.1,2.2-0.1c3.2-0.4,4.6-2.8,6-6.3l17.6-43.4c0.8-2,1.3-2.8,2-2.8c0.6,0,1,0.6,1.8,2.2c1.7,3.9,12.9,31.9,17.4,42.5c2.7,6.3,4.7,7.3,6.2,7.6c1.1,0.2,2.1,0.3,2.9,0.3c0.6,0,0.9,0.1,0.9,0.6c0,0.6-0.6,0.7-3.2,0.7c-2.5,0-7.6,0-13.2-0.1c-1.3-0.1-2.1-0.1-2.1-0.6c0-0.4,0.3-0.6,1-0.6c0.5-0.1,1-0.8,0.6-1.6l-5.6-14.4c-0.1-0.4-0.4-0.5-0.7-0.5H-1392.5z M-1378.2,154.9c0.4,0,0.4-0.2,0.4-0.4l-6.3-17.2c-0.1-0.3-0.1-0.6-0.4-0.6s-0.4,0.3-0.4,0.6l-6.4,17.2c-0.1,0.3,0,0.5,0.3,0.5H-1378.2z"/>
	<path d="M-1335.2,127.2l-10.4,0.3c-4.1,0.1-5.7,0.5-6.8,2c-0.7,1.1-1.1,1.9-1.2,2.5c-0.1,0.6-0.4,0.8-0.8,0.8c-0.5,0-0.6-0.4-0.6-1.1c0-1.1,1.3-7.5,1.5-8.1c0.2-0.9,0.4-1.3,0.8-1.3c0.6,0,1.3,0.7,3,0.8c2,0.2,4.7,0.3,7,0.3h27.7c2.2,0,3.8-0.2,4.8-0.3c1-0.2,1.6-0.4,1.9-0.4c0.5,0,0.6,0.4,0.6,1.5c0,1.5-0.2,6.3-0.2,8.1c-0.1,0.7-0.2,1.1-0.6,1.1c-0.6,0-0.7-0.4-0.8-1.4l-0.1-0.8c-0.1-1.8-2-3.8-8.3-3.9l-8.8-0.2v28.7c0,6.4,0,12,0.4,15c0.2,2,0.6,3.5,2.7,3.8c1,0.1,2.5,0.3,3.6,0.3c0.8,0,1.1,0.2,1.1,0.6c0,0.5-0.6,0.7-1.3,0.7c-4.6,0-9-0.2-11-0.2c-1.6,0-6,0.2-8.8,0.2c-0.9,0-1.4-0.2-1.4-0.7c0-0.3,0.3-0.6,1.1-0.6c1.1,0,1.9-0.1,2.5-0.3c1.4-0.3,1.8-1.8,2-3.9c0.4-2.9,0.4-8.5,0.4-14.9V127.2z"/>
	<path d="M-1293.1,143.6c0-10.6,0-12.6-0.1-14.8c-0.1-2.4-0.8-3.6-2.4-3.9c-0.8-0.2-1.7-0.3-2.5-0.3c-0.7,0-1.1-0.1-1.1-0.7c0-0.4,0.6-0.6,1.7-0.6c2.7,0,7.1,0.2,9.1,0.2c1.8,0,5.9-0.2,8.5-0.2c0.9,0,1.5,0.1,1.5,0.6c0,0.6-0.4,0.7-1.1,0.7s-1.3,0.1-2.1,0.2c-1.9,0.3-2.5,1.5-2.6,4c-0.1,2.2-0.1,4.2-0.1,14.8v12.3c0,6.8,0,12.3,0.3,15.3c0.2,1.9,0.7,3.2,2.8,3.4c1,0.1,2.5,0.3,3.6,0.3c0.8,0,1.1,0.2,1.1,0.6c0,0.5-0.6,0.7-1.3,0.7c-4.6,0-9-0.2-10.9-0.2c-1.6,0-6,0.2-8.8,0.2c-0.9,0-1.4-0.2-1.4-0.7c0-0.3,0.3-0.6,1.1-0.6c1.1,0,1.9-0.1,2.5-0.3c1.4-0.3,1.8-1.5,2-3.5c0.3-2.9,0.3-8.5,0.3-15.3V143.6z"/>
	<path d="M-1267.3,149.8c0-12,7.9-27.4,28.9-27.4c17.4,0,28.3,10.2,28.3,26.2c0,16-11.2,28.7-29,28.7C-1259.2,177.2-1267.3,162.2-1267.3,149.8z M-1219.9,151.1c0-15.7-9-25.4-20.5-25.4c-8.1,0-17.2,4.5-17.2,21.9c0,14.6,8.1,26.1,21.5,26.1C-1231.3,173.7-1219.9,171.3-1219.9,151.1z"/>
	<path d="M-1189.1,166.7c0.1,5.5,1.1,7.3,2.5,7.8c1.2,0.4,2.5,0.5,3.6,0.5c0.8,0,1.2,0.1,1.2,0.6c0,0.6-0.6,0.7-1.6,0.7c-4.6,0-7.4-0.2-8.7-0.2c-0.6,0-3.9,0.2-7.6,0.2c-0.9,0-1.5-0.1-1.5-0.7c0-0.4,0.4-0.6,1.1-0.6c0.9,0,2.2-0.1,3.1-0.4c1.8-0.6,2.1-2.6,2.2-8.7l0.6-41.2c0-1.4,0.2-2.4,0.9-2.4c0.8,0,1.4,0.9,2.6,2.2c0.8,0.9,11.5,12.1,21.7,22.3c4.8,4.8,14.2,14.8,15.4,16h0.4l-0.7-31.4c-0.1-4.3-0.7-5.6-2.4-6.3c-1-0.4-2.7-0.4-3.7-0.4c-0.8,0-1.1-0.2-1.1-0.6c0-0.6,0.8-0.6,1.8-0.6c3.6,0,7,0.2,8.5,0.2c0.8,0,3.4-0.2,6.9-0.2c0.9,0,1.6,0.1,1.6,0.6c0,0.4-0.4,0.6-1.3,0.6c-0.7,0-1.3,0-2.1,0.2c-2,0.6-2.5,2-2.6,6l-0.8,44.2c0,1.5-0.3,2.2-0.9,2.2c-0.8,0-1.6-0.8-2.4-1.5c-4.4-4.2-13.4-13.4-20.7-20.6c-7.6-7.6-15.4-16.1-16.7-17.4h-0.2L-1189.1,166.7z"/>
</g>
</svg>
